<svg width="375" height="252" viewBox="0 0 375 252" fill="none" xmlns="http://www.w3.org/2000/svg">
<g filter="url(#filter0_d_41_1576)">
<path d="M215.091 137.693H181.798C181.798 130.887 182.262 124.894 183.19 119.713C184.196 114.454 185.897 109.737 188.294 105.56C190.692 101.384 193.94 97.5178 198.038 93.9604C201.673 90.9444 204.805 88.0444 207.434 85.2604C210.064 82.4764 212.074 79.6537 213.466 76.7924C214.859 73.931 215.555 70.8764 215.555 67.6283C215.555 63.607 214.975 60.3203 213.815 57.7683C212.732 55.2163 211.069 53.3216 208.826 52.0843C206.661 50.7696 203.916 50.1123 200.59 50.1123C197.884 50.1123 195.332 50.7696 192.934 52.0843C190.614 53.399 188.72 55.4483 187.25 58.2323C185.781 60.939 184.969 64.535 184.814 69.0203H145.49C145.722 57.4976 148.274 48.1403 153.146 40.9482C158.096 33.6789 164.669 28.3815 172.866 25.0562C181.141 21.6535 190.382 19.9521 200.59 19.9521C211.881 19.9521 221.587 21.6922 229.707 25.1722C237.827 28.6522 244.052 33.8335 248.383 40.7162C252.713 47.5216 254.879 55.9123 254.879 65.8883C254.879 72.539 253.603 78.339 251.051 83.2884C248.576 88.1604 245.212 92.7231 240.959 96.9765C236.783 101.152 232.104 105.638 226.923 110.433C222.437 114.377 219.383 118.398 217.759 122.497C216.135 126.518 215.245 131.583 215.091 137.693ZM177.042 172.957C177.042 167.389 179.053 162.749 183.074 159.037C187.096 155.247 192.316 153.353 198.734 153.353C205.153 153.353 210.373 155.247 214.395 159.037C218.416 162.749 220.427 167.389 220.427 172.957C220.427 178.525 218.416 183.203 214.395 186.993C210.373 190.705 205.153 192.561 198.734 192.561C192.316 192.561 187.096 190.705 183.074 186.993C179.053 183.203 177.042 178.525 177.042 172.957Z" fill="#EBA90D"/>
</g>
<g filter="url(#filter1_d_41_1576)">
<path d="M286.172 172.045L267.472 162.091C269.507 158.269 271.56 155.042 273.63 152.409C275.767 149.756 278.133 147.615 280.728 145.986C283.323 144.357 286.303 143.156 289.669 142.384C292.612 141.776 295.238 141.084 297.548 140.306C299.857 139.529 301.83 138.545 303.467 137.354C305.105 136.163 306.409 134.655 307.38 132.831C308.582 130.572 309.239 128.553 309.351 126.772C309.505 125.015 309.138 123.454 308.248 122.089C307.425 120.703 306.08 119.513 304.212 118.519C302.692 117.709 301.062 117.316 299.322 117.337C297.626 117.382 295.949 117.967 294.292 119.091C292.657 120.172 291.126 121.949 289.698 124.422L267.611 112.665C271.186 106.262 275.417 101.77 280.304 99.1866C285.257 96.5834 290.533 95.5733 296.131 96.1564C301.796 96.7191 307.496 98.5265 313.229 101.578C319.571 104.954 324.502 108.833 328.022 113.215C331.543 117.598 333.49 122.369 333.865 127.53C334.262 132.647 332.97 138.007 329.987 143.61C327.999 147.346 325.548 150.222 322.635 152.239C319.789 154.236 316.535 155.793 312.874 156.91C309.28 158.007 305.311 159.127 300.968 160.271C297.269 161.146 294.351 162.491 292.213 164.308C290.099 166.081 288.085 168.66 286.172 172.045ZM254.258 180.476C255.923 177.349 258.439 175.344 261.808 174.461C265.199 173.535 268.698 174.032 272.303 175.951C275.908 177.87 278.274 180.495 279.399 183.825C280.548 187.113 280.29 190.32 278.626 193.447C276.961 196.575 274.433 198.601 271.041 199.527C267.673 200.41 264.186 199.892 260.581 197.973C256.975 196.054 254.598 193.451 253.449 190.163C252.324 186.833 252.593 183.604 254.258 180.476Z" fill="#CAB7FF"/>
</g>
<g filter="url(#filter2_d_41_1576)">
<path d="M104.264 172.045L122.963 162.091C120.928 158.269 118.876 155.042 116.806 152.409C114.669 149.756 112.303 147.615 109.708 145.986C107.113 144.357 104.132 143.156 100.767 142.384C97.8234 141.776 95.1972 141.084 92.888 140.306C90.5788 139.529 88.6055 138.545 86.9682 137.354C85.3309 136.163 84.0267 134.655 83.0556 132.831C81.8533 130.572 81.1964 128.553 81.085 126.772C80.9301 125.015 81.2975 123.454 82.1872 122.089C83.0104 120.703 84.3558 119.513 86.2236 118.519C87.7438 117.709 89.3737 117.316 91.1133 117.337C92.8095 117.382 94.4863 117.967 96.144 119.091C97.7785 120.172 99.3097 121.949 100.738 124.422L122.825 112.665C119.25 106.262 115.018 101.77 110.132 99.1866C105.178 96.5834 99.9026 95.5733 94.3042 96.1564C88.6392 96.7191 82.9399 98.5265 77.2063 101.578C70.8647 104.954 65.9337 108.833 62.4133 113.215C58.893 117.598 56.9455 122.369 56.5709 127.53C56.1731 132.647 57.4655 138.007 60.4481 143.61C62.4366 147.346 64.8873 150.222 67.8005 152.239C70.647 154.236 73.9006 155.793 77.5613 156.91C81.1554 158.007 85.1243 159.127 89.468 160.271C93.1665 161.146 96.0845 162.491 98.2221 164.308C100.337 166.081 102.35 168.66 104.264 172.045ZM136.178 180.476C134.513 177.349 131.996 175.344 128.628 174.461C125.236 173.535 121.738 174.032 118.133 175.951C114.527 177.87 112.162 180.495 111.036 183.825C109.887 187.113 110.145 190.32 111.81 193.447C113.475 196.575 116.003 198.601 119.394 199.527C122.763 200.41 126.25 199.892 129.855 197.973C133.46 196.054 135.837 193.451 136.986 190.163C138.112 186.833 137.842 183.604 136.178 180.476Z" fill="#FFA9D2"/>
</g>
<path d="M205.735 138.303L206.619 138.314L206.652 137.43C206.876 131.39 207.814 126.452 209.43 122.582L209.432 122.577C211.034 118.669 214.03 114.795 218.489 110.966L218.498 110.959L218.507 110.951C223.751 106.211 228.491 101.773 232.726 97.6373C237.09 93.3751 240.567 88.7775 243.148 83.8432C245.837 78.7745 247.205 72.8432 247.285 66.0773C247.405 55.9714 245.312 47.3774 240.952 40.344C236.599 33.2407 230.287 27.8697 222.056 24.2266C213.838 20.5895 204.027 18.72 192.647 18.5857C182.338 18.464 172.959 20.0717 164.52 23.4254C156.12 26.7188 149.341 32.0506 144.203 39.4081L144.202 39.4099C139.118 46.7277 136.425 56.2401 136.054 67.8783L136.024 68.8036L136.95 68.8145L176.271 69.2786L177.148 69.289L177.188 68.4134C177.392 64.0112 178.229 60.5784 179.637 58.0551L179.637 58.0551L179.642 58.0458C181.076 55.406 182.878 53.5195 185.034 52.33C187.312 51.1167 189.719 50.528 192.269 50.5581C195.479 50.5959 198.041 51.261 200.012 52.4898L200.028 52.4998L200.045 52.5091C202.081 53.6642 203.591 55.4137 204.573 57.8069L204.578 57.8176L204.582 57.8281C205.642 60.2352 206.176 63.388 206.129 67.3316C206.092 70.4449 205.392 73.3555 204.029 76.0746C202.652 78.8222 200.667 81.5471 198.056 84.2467C195.425 86.9678 192.287 89.806 188.64 92.7609L188.632 92.7672L188.624 92.7737C184.416 96.3398 181.053 100.244 178.549 104.489C176.046 108.732 174.256 113.526 173.171 118.86L173.171 118.86L173.169 118.87C172.167 124.106 171.629 130.149 171.548 136.993L171.538 137.9L172.445 137.911L205.735 138.303ZM172.869 157.69C168.614 161.527 166.445 166.384 166.376 172.198C166.308 178.014 168.362 182.956 172.52 186.968L172.526 186.974C176.698 190.917 182.128 192.897 188.732 192.975C195.336 193.053 200.812 191.202 205.075 187.359L205.082 187.352C209.333 183.44 211.503 178.547 211.572 172.732C211.641 166.918 209.587 162.011 205.424 158.075C201.255 154.054 195.824 152.033 189.216 151.955C182.609 151.877 177.132 153.769 172.869 157.69Z" stroke="white" stroke-width="1.81447"/>
<path d="M280.733 169.591L281.227 169.862L281.51 169.375C283.442 166.05 285.444 163.556 287.509 161.866L287.512 161.864C289.58 160.148 292.421 158.867 296.071 158.05L296.078 158.048L296.085 158.047C300.448 156.953 304.437 155.877 308.052 154.82C311.777 153.731 315.104 152.189 318.029 150.189C321.055 148.146 323.597 145.223 325.665 141.447C328.754 135.806 330.148 130.353 329.802 125.098C329.48 119.808 327.541 114.904 324.007 110.397C320.479 105.898 315.527 101.914 309.175 98.4363C303.422 95.286 297.673 93.3847 291.931 92.7455C286.228 92.0836 280.826 93.0517 275.741 95.6482L275.74 95.6488C270.696 98.2389 266.34 102.777 262.651 109.202L262.358 109.713L262.875 109.996L284.822 122.013L285.311 122.281L285.595 121.801C287.026 119.39 288.522 117.712 290.068 116.716L290.068 116.716L290.073 116.712C291.668 115.658 293.244 115.137 294.811 115.113C296.453 115.113 297.981 115.502 299.404 116.281C301.196 117.262 302.436 118.402 303.176 119.681L303.182 119.692L303.188 119.702C303.987 120.959 304.312 122.394 304.148 124.032L304.147 124.039L304.147 124.046C304.022 125.715 303.379 127.645 302.174 129.846C301.223 131.584 299.959 133.009 298.381 134.129C296.786 135.261 294.856 136.198 292.583 136.934C290.291 137.675 287.68 138.331 284.748 138.9L284.748 138.9L284.735 138.903C281.306 139.648 278.25 140.835 275.574 142.471C272.899 144.106 270.461 146.263 268.256 148.935L268.256 148.935L268.252 148.94C266.124 151.581 264.015 154.814 261.924 158.634L261.647 159.14L262.153 159.418L280.733 169.591ZM256.477 170.654C252.941 171.537 250.27 173.617 248.493 176.862C246.716 180.108 246.392 183.498 247.528 186.994L247.53 187C248.694 190.461 251.152 193.197 254.838 195.215C258.524 197.234 262.153 197.831 265.697 196.947L265.702 196.945C269.26 196.019 271.942 193.92 273.719 190.674C275.496 187.429 275.809 184.059 274.648 180.604C273.509 177.099 271.062 174.34 267.374 172.32C263.686 170.301 260.044 169.726 256.477 170.654Z" stroke="white" stroke-width="1.15453"/>
<path d="M109.702 169.591L109.208 169.862L108.925 169.375C106.994 166.05 104.991 163.556 102.926 161.866L102.923 161.864C100.855 160.148 98.0141 158.867 94.3646 158.05L94.3574 158.048L94.3503 158.047C89.9875 156.953 85.9984 155.877 82.3832 154.82C78.6581 153.731 75.3308 152.189 72.4065 150.189C69.3802 148.146 66.8379 145.223 64.7699 141.447C61.6813 135.806 60.2875 130.353 60.6334 125.098C60.9553 119.808 62.8947 114.904 66.4283 110.397C69.9563 105.898 74.9083 101.914 81.26 98.4363C87.0135 95.286 92.7625 93.3847 98.5046 92.7455C104.208 92.0836 109.609 93.0517 114.695 95.6482L114.696 95.6488C119.739 98.2389 124.096 102.777 127.784 109.202L128.077 109.713L127.561 109.996L105.614 122.013L105.125 122.281L104.84 121.801C103.409 119.39 101.913 117.712 100.368 116.716L100.367 116.716L100.362 116.712C98.7676 115.658 97.1911 115.137 95.6248 115.113C93.9826 115.113 92.4544 115.502 91.031 116.281C89.2395 117.262 87.9993 118.402 87.2596 119.681L87.2536 119.692L87.2471 119.702C86.4487 120.959 86.1234 122.394 86.2873 124.032L86.2881 124.039L86.2886 124.046C86.4129 125.715 87.056 127.645 88.2613 129.846C89.2127 131.584 90.4763 133.009 92.0547 134.129C93.6496 135.261 95.5792 136.198 97.8526 136.934C100.144 137.675 102.755 138.331 105.687 138.9L105.687 138.9L105.7 138.903C109.13 139.648 112.186 140.835 114.862 142.471C117.536 144.106 119.975 146.263 122.179 148.935L122.179 148.935L122.183 148.94C124.311 151.581 126.42 154.814 128.511 158.634L128.789 159.14L128.282 159.418L109.702 169.591ZM133.958 170.654C137.495 171.537 140.165 173.617 141.942 176.862C143.719 180.108 144.043 183.498 142.907 186.994L142.905 187C141.741 190.461 139.283 193.197 135.597 195.215C131.911 197.234 128.282 197.831 124.739 196.947L124.733 196.945C121.175 196.019 118.494 193.92 116.716 190.674C114.94 187.429 114.626 184.059 115.787 180.604C116.927 177.099 119.373 174.34 123.061 172.32C126.749 170.301 130.391 169.726 133.958 170.654Z" stroke="white" stroke-width="1.15453"/>
<path d="M374.515 67.4635C365.574 72.9189 343.328 78.9199 325.871 59.2803C304.049 34.7309 294.957 16.5462 263.588 12" stroke="white" stroke-linecap="round"/>
<path d="M-1 193.393C11.1232 187.938 40.2794 181.846 59.9189 201.122C84.4683 225.216 99.0161 239.309 129.021 230.217" stroke="white" stroke-linecap="round"/>
<circle cx="69.4658" cy="27.9116" r="10.8655" stroke="white"/>
<circle cx="286.773" cy="214.305" r="2.68233" stroke="white"/>
<defs>
<filter id="filter0_d_41_1576" x="106.43" y="0.421848" width="187.51" height="250.73" filterUnits="userSpaceOnUse" color-interpolation-filters="sRGB">
<feFlood flood-opacity="0" result="BackgroundImageFix"/>
<feColorMatrix in="SourceAlpha" type="matrix" values="0 0 0 0 0 0 0 0 0 0 0 0 0 0 0 0 0 0 127 0" result="hardAlpha"/>
<feOffset dy="19.5303"/>
<feGaussianBlur stdDeviation="19.5303"/>
<feComposite in2="hardAlpha" operator="out"/>
<feColorMatrix type="matrix" values="0 0 0 0 0.210031 0 0 0 0 0.0633751 0 0 0 0 0.65 0 0 0 0.4 0"/>
<feBlend mode="normal" in2="BackgroundImageFix" result="effect1_dropShadow_41_1576"/>
<feBlend mode="normal" in="SourceGraphic" in2="effect1_dropShadow_41_1576" result="shape"/>
</filter>
<filter id="filter1_d_41_1576" x="227.915" y="83.5694" width="130.874" height="153.656" filterUnits="userSpaceOnUse" color-interpolation-filters="sRGB">
<feFlood flood-opacity="0" result="BackgroundImageFix"/>
<feColorMatrix in="SourceAlpha" type="matrix" values="0 0 0 0 0 0 0 0 0 0 0 0 0 0 0 0 0 0 127 0" result="hardAlpha"/>
<feOffset dy="12.4269"/>
<feGaussianBlur stdDeviation="12.4269"/>
<feComposite in2="hardAlpha" operator="out"/>
<feColorMatrix type="matrix" values="0 0 0 0 0.210031 0 0 0 0 0.0633751 0 0 0 0 0.65 0 0 0 0.4 0"/>
<feBlend mode="normal" in2="BackgroundImageFix" result="effect1_dropShadow_41_1576"/>
<feBlend mode="normal" in="SourceGraphic" in2="effect1_dropShadow_41_1576" result="shape"/>
</filter>
<filter id="filter2_d_41_1576" x="31.647" y="83.5694" width="130.874" height="153.656" filterUnits="userSpaceOnUse" color-interpolation-filters="sRGB">
<feFlood flood-opacity="0" result="BackgroundImageFix"/>
<feColorMatrix in="SourceAlpha" type="matrix" values="0 0 0 0 0 0 0 0 0 0 0 0 0 0 0 0 0 0 127 0" result="hardAlpha"/>
<feOffset dy="12.4269"/>
<feGaussianBlur stdDeviation="12.4269"/>
<feComposite in2="hardAlpha" operator="out"/>
<feColorMatrix type="matrix" values="0 0 0 0 0.210031 0 0 0 0 0.0633751 0 0 0 0 0.65 0 0 0 0.4 0"/>
<feBlend mode="normal" in2="BackgroundImageFix" result="effect1_dropShadow_41_1576"/>
<feBlend mode="normal" in="SourceGraphic" in2="effect1_dropShadow_41_1576" result="shape"/>
</filter>
</defs>
</svg>
